<?xml version="1.0" encoding="UTF-8"?>
<!DOCTYPE svg PUBLIC "-//W3C//DTD SVG 1.1//EN" "http://www.w3.org/Graphics/SVG/1.1/DTD/svg11.dtd">
<!-- Creator: CorelDRAW 2021 (64 Bit) -->
<svg xmlns="http://www.w3.org/2000/svg" xml:space="preserve" width="320px" height="247px" version="1.1" style="shape-rendering:geometricPrecision; text-rendering:geometricPrecision; image-rendering:optimizeQuality; fill-rule:evenodd; clip-rule:evenodd"
viewBox="0 0 320 247"
 xmlns:xlink="http://www.w3.org/1999/xlink"
 xmlns:xodm="http://www.corel.com/coreldraw/odm/2003">
 <defs>
  <style type="text/css">
   <![CDATA[
    .str0 {stroke:#373435;stroke-width:2;stroke-miterlimit:22.9256}
    .str1 {stroke:#373435;stroke-width:1;stroke-miterlimit:22.9256}
    .fil13 {fill:none}
    .fil3 {fill:#FEFEFE}
    .fil12 {fill:#373435}
    .fil2 {fill:#0098DA}
    .fil6 {fill:#020202}
    .fil11 {fill:#331208}
    .fil1 {fill:#42C6F1}
    .fil5 {fill:#5BADED}
    .fil4 {fill:#7299E9}
    .fil10 {fill:#8E7DE4}
    .fil7 {fill:#945443}
    .fil8 {fill:#E9F7F6}
    .fil0 {fill:#FF9D02}
    .fil9 {fill:white}
   ]]>
  </style>
 </defs>
 <g id="Camada_x0020_1">
  <metadata id="CorelCorpID_0Corel-Layer"/>
  <polygon class="fil0" points="0,247 320,247 320,0 0,0 "/>
  <rect class="fil1" x="5" y="40" width="91" height="91" rx="7" ry="7"/>
  <circle class="fil1" cx="276" cy="100" r="42"/>
  <path class="fil1" d="M136 170c0,1 3,3 4,4 -2,1 -4,1 -7,1 -2,0 -1,0 -2,1 0,0 -1,1 -2,1l-2 -2c-1,0 -1,0 -2,0 -1,-1 -1,0 -1,-1 1,2 -1,1 -1,1 -2,-1 0,0 -1,-1 -3,1 -1,2 -2,1 1,1 1,1 1,3 -2,1 -2,1 -3,1 1,1 1,2 1,3 -1,0 -1,0 -2,0 -2,1 -1,1 -3,3 -1,-1 -2,-1 -4,1 0,1 1,1 2,2 1,1 2,1 2,2 1,2 8,5 11,6 2,1 5,1 8,1 2,0 5,-1 7,-1l-1 7c0,2 -1,2 3,4 3,1 5,2 9,3l13 5c7,4 4,1 10,0l3 -1c6,-2 5,-2 11,-3 3,-1 3,-2 3,-2l0 -1c0,-1 0,-1 0,-2 0,-1 0,-2 1,-2 4,1 4,2 9,2 3,0 8,0 10,-2 0,-2 0,0 -2,-1 1,-1 0,0 2,-1 -6,0 -2,-1 -4,-2 -1,-1 0,1 -2,-2l-1 -2 -4 0 0 -3c-2,-1 -2,1 -2,-2l4 0c-1,-1 0,0 -2,-1 -1,0 -1,0 -2,0 1,-1 1,0 3,-1 -1,-2 -2,-1 -4,-2l0 -1c-1,0 0,0 -1,0 -1,0 -1,1 -1,-1l1 -1c1,-1 2,0 4,-1l-4 -2c0,0 0,0 0,0 2,-1 1,0 2,-2l1 -1c1,-2 0,-3 -1,-3l-1 0c0,-1 0,-2 0,-2 0,-1 -1,-3 -2,-3 0,0 -1,0 -1,0l2 -1c-1,-1 -1,0 -1,-1 0,-1 0,0 1,-1l1 -1c0,0 0,-1 -1,0 -1,0 -1,2 -4,1 -2,0 -9,2 -11,3 -2,1 -4,1 -5,2 -2,1 -4,2 -5,2 0,4 -2,6 -7,5 -6,-1 -5,-5 -5,-7 -2,-1 -1,0 -3,-1 -3,-2 -4,-5 -3,-9l0 4c-5,-2 -8,-7 -9,-7 -3,1 0,1 1,2 -1,2 0,2 -1,2 -2,-1 0,-1 -2,-2 -1,1 0,2 0,2 0,2 0,0 0,1l-1 3c0,1 0,0 -1,1l0 0c0,0 0,0 0,0 -1,1 0,0 -1,1 -3,-1 0,-2 -2,-2 -1,2 0,1 1,3l-5 3c0,1 1,1 2,1l0 2z"/>
  <path class="fil2" d="M150 225c0,-1 0,-1 0,-1 0,0 -1,-1 -3,-1 2,-2 2,0 4,-1 0,0 0,-1 4,-2l1 2 3 0c1,-2 0,-1 2,-1 2,-1 1,0 2,-1 2,0 3,0 4,1 1,1 0,2 2,2l0 -3c10,0 4,-1 8,-1 0,1 0,2 0,3l2 0c0,-3 0,-2 2,-3 0,0 0,0 0,0 0,0 0,0 0,0 1,1 0,1 0,5 0,0 0,0 0,0 0,0 0,0 0,0l1 -2c2,0 2,0 3,1l0 0c1,1 1,1 1,2 0,0 0,1 0,1l6 -2c0,0 0,0 0,0 0,0 0,0 0,0l0 4c0,0 0,0 0,0 0,1 0,1 0,2 0,2 0,1 0,1 2,-1 8,-4 10,-5 10,-5 9,-15 3,-18 -5,-3 -8,-2 -14,-1l0 -5c0,0 0,0 0,0 -1,0 -1,1 -1,2 0,1 0,1 0,2l0 1c0,0 0,1 -3,2 -6,1 -5,2 -11,3l-3 1c-6,2 -3,4 -10,0l-13 -5c-3,-2 -6,-2 -9,-3 -4,-1 -3,-2 -3,-4 0,0 0,1 0,1 0,0 0,0 0,0l0 1c-6,-1 -12,-4 -19,-1 -5,2 -8,9 -5,14 2,4 9,6 13,9 3,2 13,6 15,7 2,-2 3,-6 6,-8 1,0 1,0 1,1z"/>
  <path class="fil1" d="M208 105c1,-2 1,-5 0,-8 -10,0 -19,0 -29,0 -9,0 -19,0 -29,0 -17,0 -18,2 -18,-10 0,-8 -1,-18 0,-26l0 -9c0,-4 1,-36 0,-38 -1,-1 -4,0 -6,0 -5,1 -4,8 -4,13l0 68c0,12 -1,11 12,11l62 0c5,0 7,1 10,-2z"/>
  <path class="fil3" d="M266 125c6,0 13,0 19,0 5,0 13,1 16,-3 2,-5 -3,-6 -5,-12 -2,-5 -1,-10 -2,-16 -1,-5 -1,-6 -4,-10 -2,-3 -5,-4 -9,-5 0,-4 0,-6 -5,-6 -5,0 -5,2 -5,6 -17,5 -13,20 -14,27 -2,8 -7,9 -7,13 0,7 10,5 16,5z"/>
  <path class="fil4" d="M150 225c0,2 1,3 1,5 2,1 1,2 3,6 1,2 3,5 3,7 2,0 1,0 2,1 1,1 1,1 2,2 4,0 32,-12 33,-14 -1,0 0,0 0,-1 0,-1 0,-1 0,-2 0,0 0,0 0,0l0 -4c0,0 0,0 0,0 0,0 0,0 0,0l-6 2c0,0 0,-1 0,-1 0,-1 -1,-1 -1,-2l0 0c-1,-1 0,0 -3,-1l-1 2c0,0 0,0 0,0 0,0 0,0 0,0 0,-4 0,-3 0,-5 0,0 0,0 0,0 0,0 0,0 0,0 -2,1 -1,1 -2,3l-2 0c0,-1 0,-3 0,-3 -4,0 1,1 -8,1l0 3c-2,0 0,-1 -2,-2 -1,-1 -2,-1 -4,-1 -1,1 0,1 -2,1 -2,0 -1,0 -2,1l-3 0 -1 -2c-4,0 -4,1 -4,2 -1,1 -2,0 -4,1 3,0 3,1 3,1 0,0 0,0 0,1z"/>
  <path class="fil5" d="M116 139c-1,3 -5,2 0,10 4,7 14,20 20,22l0 -2c-1,0 -1,0 -2,-1l5 -3c-1,-1 -2,-1 -1,-3 3,0 0,1 2,2 1,0 0,0 1,-1 0,0 0,0 0,0l0 0c1,-1 0,0 1,-1l1 -3c0,-1 1,1 0,-1 0,0 -1,-1 0,-2 1,1 0,1 2,2 1,0 1,0 1,-2 -1,-1 -3,-1 -1,-2 -1,-2 -3,-4 -4,-5 -2,-3 -8,-10 -10,-12 -1,-1 -1,0 -2,-1 0,0 0,-1 0,-1 0,2 1,1 -3,2 -3,0 -6,3 -9,4z"/>
  <path class="fil5" d="M194 160c3,0 3,-1 4,-1 2,-1 1,0 1,0l-1 1c-1,0 -1,0 -1,1 0,1 0,0 1,1l-2 1c0,0 1,0 1,0 1,1 2,3 2,3 0,0 0,2 0,2l1 0c1,1 2,2 1,3l-1 1c-1,1 -1,1 -2,2 0,0 0,0 0,0l4 2c-2,1 -3,0 -4,1l-1 1c-1,2 0,1 1,1l0 -1c8,-1 23,-8 29,-13 1,-1 3,-2 4,-3 1,-2 0,-4 0,-6 -1,0 -1,-1 -2,-2 -2,-4 -7,-6 -7,-7 -5,0 -15,6 -20,8l-7 3z"/>
  <path class="fil5" d="M198 181l0 1c2,2 3,0 4,2 -1,1 -2,0 -3,1 1,0 1,0 2,0 2,1 1,0 2,1l-4 0c0,3 0,1 2,2l0 3 4 0 1 2c1,3 0,1 2,2 2,2 -1,2 4,2 -1,1 -1,0 -2,1 2,2 2,-1 2,1 4,0 10,-3 13,-4 2,-1 4,-2 5,-3 3,-2 2,-3 2,-6l-1 -2c0,-1 0,-1 -1,-2 0,-1 -1,-2 -1,-3 0,0 0,0 0,-1 -1,-2 -3,-3 -3,-4 -5,-1 -10,1 -15,2 -2,1 -5,1 -7,2 -4,1 -4,0 -7,-1z"/>
  <path class="fil3" d="M144 38c2,1 59,1 64,0l0 -8 -64 0 0 8z"/>
  <polygon class="fil3" points="161,55 208,55 208,47 144,47 144,55 "/>
  <path class="fil3" d="M162 72l28 0 0 -8c-8,0 -15,0 -23,0 -6,0 -17,1 -22,0 -1,2 -1,6 0,8l17 0z"/>
  <path class="fil6" d="M157 146c2,-1 1,-1 2,-1 1,2 2,2 6,2 2,5 4,1 6,7l0 2c0,3 1,1 1,3 0,1 0,1 0,2 0,2 1,2 2,3 1,0 6,-1 6,-2 2,-2 2,-3 2,-6 4,-3 3,-5 0,-8 1,-5 -1,-7 -7,-6 -1,-3 -4,-5 -7,-3 -2,1 0,1 -3,0 -3,-1 -3,1 -5,2 -1,1 -4,1 -2,5z"/>
  <path class="fil7" d="M157 146c0,2 -3,7 -3,9 -1,3 1,7 3,9 2,1 1,1 3,1 0,2 0,7 5,7 4,0 7,-2 7,-5 0,-2 0,-2 1,-3 -1,-1 -2,-1 -2,-3 0,-1 0,-1 0,-2 0,-2 -1,-1 -1,-3l0 -2c-2,-6 -4,-2 -6,-7 -3,0 -4,0 -6,-2 -2,1 -1,1 -2,1z"/>
  <path class="fil5" d="M102 172c0,2 -2,4 0,6 1,2 3,3 4,4 2,2 6,5 9,7 0,-1 -1,-2 -2,-2 -1,-1 -2,-1 -2,-2 1,-1 2,-1 4,-1 2,-1 1,-2 3,-3 1,0 1,0 2,0 0,-1 0,-2 -1,-3 1,-1 0,0 3,-1 0,-2 0,-2 -1,-3 1,1 0,0 2,-1 1,2 -1,1 1,1 0,0 2,0 1,-1 0,1 0,1 1,1 1,0 1,0 2,0l2 2c0,0 1,-1 2,-1 1,-1 0,0 2,-1l-10 -6c-4,-2 -6,-4 -11,-5 -1,1 -2,1 -3,2 -2,1 -2,2 -4,3l-1 1c-1,1 0,1 -2,2z"/>
  <path class="fil7" d="M102 172c1,-1 1,-1 2,-2l1 -1c2,-1 2,-2 4,-3 1,-1 2,-1 3,-2 -3,-5 -1,-2 -1,-6 0,-4 -3,-9 -6,-3 -2,-2 -2,-7 -4,-8 -2,-1 -1,0 -2,0 -3,1 -1,-1 -5,2 -2,2 -3,0 -2,5 1,3 -2,5 2,10 2,2 3,2 4,4 2,2 2,3 4,5z"/>
  <path class="fil7" d="M221 148c1,1 5,3 7,7 1,1 1,2 2,2 1,-1 3,-3 4,-4 2,-2 8,-4 8,-9 0,-2 -1,-1 0,-3 1,-5 0,-4 -1,-5 -1,-1 -1,-1 -1,-2 -1,-1 -1,0 -3,-1 -1,0 -2,-1 -3,-1 -3,1 -4,5 -5,8 -1,-2 0,-3 -3,-3 -2,1 -3,3 -4,5 0,2 0,3 0,4 0,1 -1,1 -2,2z"/>
  <path class="fil7" d="M226 178c1,1 2,2 3,4 0,0 0,0 0,1 0,1 1,2 1,3 0,1 0,1 1,2l1 2c3,-1 5,-3 7,-4 10,-3 7,-7 8,-9 0,-1 2,-3 2,-4 0,-1 0,0 -1,-2 -2,-2 0,-2 -3,-3 -2,-1 -3,-5 -9,5 0,0 -1,-4 -2,-3 0,0 0,0 0,0 0,0 -2,-1 -4,3 -1,2 -2,3 -2,6l-2 2z"/>
  <path class="fil7" d="M113 120c-6,3 1,11 2,14 0,2 1,4 2,5 3,-1 6,-4 9,-4 4,-1 3,0 3,-2 -1,-3 1,-3 2,-6 1,-2 1,-5 -1,-6 -3,0 -2,1 -4,2 0,-11 -1,-9 -4,-9 -2,0 -1,-1 -4,0 -1,0 0,0 -1,0 0,0 -1,0 -1,0 -1,2 -2,3 -1,5z"/>
  <path class="fil8" d="M32 85c-3,1 -4,4 -7,6 -1,-1 -5,-4 -6,-5 1,-1 2,-2 3,-3 1,1 2,2 3,3 0,0 5,-4 5,-5 -3,0 -10,-1 -12,1 -1,1 -1,3 -1,5 0,2 0,4 0,6 1,3 13,4 14,0 0,-2 0,-5 0,-6z"/>
  <path class="fil8" d="M18 101c-2,2 -1,4 -1,8 0,3 0,5 4,5 10,0 11,1 11,-8 -2,1 -5,5 -7,6 -1,0 -5,-4 -6,-5 0,-1 0,-1 1,-2 1,-1 1,-1 2,-1 1,1 2,2 3,2l5 -4c1,-1 0,0 1,-1 -1,-1 -1,-1 -3,-1 -1,0 -2,0 -3,0 -2,0 -4,0 -5,1z"/>
  <path class="fil9" d="M32 64c-2,1 -5,5 -7,6 -1,-1 -5,-4 -6,-6 1,-1 1,-2 3,-3 1,1 2,2 3,2 1,-1 5,-4 5,-5 -3,0 -10,-1 -12,1 -1,1 -2,9 -1,11 1,3 7,2 10,2 5,0 4,-4 4,-8z"/>
  <path class="fil1" d="M218 18c-1,-1 -9,-9 -11,-10 -1,-1 -1,-1 -2,-1l-1 3c0,8 0,10 13,9z"/>
  <path class="fil10" d="M18 101c2,-1 3,-1 5,-1 1,0 2,0 3,0 2,0 2,0 3,1 -1,1 0,0 -1,1l-5 4c-2,-1 -2,-2 -3,-2 -1,0 -1,0 -2,1 -1,1 -1,1 -1,2 1,1 5,5 6,5 2,-1 5,-5 7,-6 1,-1 3,-2 3,-4 0,-1 -1,-1 -2,-2 0,0 0,0 0,-1 -3,0 2,1 -7,1 -2,0 -6,-1 -7,1z"/>
  <path class="fil10" d="M30 59c0,1 -4,5 -5,5 -1,-1 -2,-2 -3,-2 -2,1 -2,2 -3,3 1,1 5,5 6,6 2,-1 5,-5 7,-6 1,-1 0,-1 1,-1 0,0 0,0 0,0 1,-1 2,-1 2,-2 0,-2 0,0 -1,-2 0,0 -1,-1 -1,-1 -2,0 -1,1 -3,1z"/>
  <path class="fil10" d="M30 80c0,2 -5,5 -5,5 -1,-1 -2,-2 -3,-3 -1,0 -2,2 -3,3 1,1 5,5 6,5 3,-2 4,-4 7,-6l2 -3c0,0 2,0 0,-3l0 0c-1,-1 0,0 -1,0 -1,0 -2,1 -3,1z"/>
  <path class="fil7" d="M157 242c0,-2 -2,-5 -3,-7 -2,-4 -1,-5 -3,-6 -1,2 -3,5 -2,7 1,2 4,3 5,6l4 -1z"/>
  <path class="fil3" d="M268 126c1,3 7,6 14,3 2,-1 3,-1 3,-4 -6,0 -12,-1 -17,1z"/>
  <path class="fil11" d="M238 173c-2,-1 0,-1 -2,-1 1,2 1,2 1,5 0,2 -1,2 -1,4l1 0c1,-2 2,-4 2,-6 2,1 4,4 7,5 0,-1 -1,-1 1,-2 1,-1 1,-1 3,-2 -1,-1 1,-1 -1,-1 -1,0 -2,2 -2,2 -1,1 0,1 -2,1 -1,-1 -1,-1 0,-2 1,-1 5,-5 5,-6 -1,0 -3,2 -4,3 -1,1 -2,2 -3,3l-2 -2c1,-1 2,-2 3,-3 1,-1 2,-2 3,-4 -2,0 -2,2 -4,3 -1,1 -2,2 -3,3z"/>
  <path class="fil11" d="M101 157l-3 1c-1,-2 -3,-7 -4,-8 -1,1 0,3 1,4 1,1 1,3 2,4l-2 1c-1,-2 -2,-4 -3,-4 -1,1 3,1 1,6 2,0 6,-3 8,-3 -1,2 -1,5 0,7 1,-1 0,-2 0,-5 1,-2 2,-2 2,-4l-3 1c0,-2 -1,-3 -2,-4 -1,-2 -1,-3 -2,-3l3 8z"/>
  <path class="fil11" d="M231 142c-1,0 -1,0 -3,-1 0,2 2,2 2,4 0,2 -1,4 0,5 2,-2 1,-4 1,-6 2,1 6,3 7,3 0,-1 -1,-1 0,-3 1,-1 2,-1 2,-2 -3,0 -2,2 -4,4l-2 -1c0,-2 1,-3 2,-4 1,-1 2,-3 2,-5 -1,0 0,0 -1,1l-4 7c-1,-1 -1,-1 -3,-1l3 -6c1,-1 1,-1 0,-2 0,0 0,0 0,0 -1,1 -4,7 -4,7z"/>
  <path class="fil11" d="M113 120c0,2 2,3 0,6 3,0 6,-1 8,-1 -1,1 -3,4 -3,5 0,3 -1,-2 0,1 0,0 0,0 0,0 0,0 0,0 0,0l0 -1c0,0 0,0 0,0 0,0 0,0 0,0 0,0 0,-1 0,-1 1,-4 3,-4 4,-5l-2 -1c0,-3 0,-6 -1,-8 -1,1 -1,3 0,5 0,1 0,3 0,4 -6,2 -2,-4 -4,-9 -1,0 -1,1 0,5 0,1 0,2 0,3 0,2 1,2 -1,2 -2,-1 1,-4 -3,-5z"/>
  <circle class="fil12 str0" cx="159" cy="151" r="1"/>
  <circle class="fil12 str0" cx="166" cy="153" r="1"/>
  <path class="fil13 str1" d="M155 157c2,3 5,4 8,3"/>
  <rect class="fil3" x="41" y="101" width="44" height="13"/>
  <rect class="fil3" x="40" y="59" width="44" height="13"/>
  <rect class="fil3" x="40" y="79" width="44" height="13"/>
 </g>
</svg>
